# xmcd
#
# Track frame offsets:
#	150
#	19378
#	41391
#	61436
#	82266
#	93050
#	113090
#	137308
#	159101
#	175326
#	200420
#
# Disc length: 2872 seconds
#
# Revision: 0
# Processed by: cddbd v1.5.2PL0 Copyright (c) Steve Scherf et al.
# Submitted via: EasyCDDAExtractor 10.5.1.1
#
DISCID=840b360b
DTITLE=The Cooke Brothers - Driving Nails
DYEAR=2002
DGENRE=Gospel
TTITLE0=Not The Man I Used To Be
TTITLE1=Every Time He Drove A nail
TTITLE2=He Was Thinking Of Me
TTITLE3=If It Had Not Been
TTITLE4=I Want To Be Ready
TTITLE5=I Sure Miss You
TTITLE6=I Won't Miss Them Long
TTITLE7=Everything I Need
TTITLE8=Long Black Train
TTITLE9=Down On My Knees
TTITLE10=One Day-living He Loved Me
EXTD=
EXTT0=
EXTT1=
EXTT2=
EXTT3=
EXTT4=
EXTT5=
EXTT6=
EXTT7=
EXTT8=
EXTT9=
EXTT10=
PLAYORDER=
